<?xml version="1.0" encoding="UTF-8"?>
<svg id="Livello_2" data-name="Livello 2" xmlns="http://www.w3.org/2000/svg" viewBox="0 0 672.98 90.01">
  <defs>
    <style>
      .cls-1 {
        fill: #e6332a;
      }
    </style>
  </defs>
  <g id="Livello_1-2" data-name="Livello 1">
    <g>
      <path class="cls-1" d="M78.39,3.29l1.97,21.49h-2.63c-6.36-13.16-7.89-16.77-20.5-16.77h-12.72v68.08c0,7.67,5.48,8.77,13.7,9.1v3.62H22.04v-3.62c8.22-.33,13.7-1.43,13.7-9.1V8h-12.61c-12.61,0-14.14,3.62-20.5,16.77H0L1.86,3.29h76.52Z"/>
      <path class="cls-1" d="M81.23,8v-2.08l13.92-5.92h3.73l-.55,9.43v32.23c4.82-5.26,13.27-11.29,22.58-11.29,10.63,0,18.31,4.93,18.31,17.98v31.03c0,5.04,4.28,5.59,9.32,6.25v3.18h-26.97v-3.18c5.04-.66,9.32-1.21,9.32-6.25v-29.82c0-8.99-4.93-12.17-12.72-12.17-6.69,0-14.8,4.06-19.84,8.66v33.33c0,5.04,4.17,5.59,9.21,6.25v3.18h-26.86v-3.18c5.04-.66,9.32-1.21,9.32-6.25V9.76l-8.77-1.75Z"/>
      <path class="cls-1" d="M200.18,53.28v2.63h-44.29c-1.1,16.34,8.22,26.97,22.37,26.97,9.43,0,14.47-3.62,19.41-9.87l2.74.99c-3.07,8.44-10.52,15.9-24.23,15.9-18.2,0-27.96-13.27-27.96-27.85,0-18.64,11.29-31.68,28.18-31.68,15.68,0,23.79,9.87,23.79,22.91ZM156.65,51.2h34.42c0-8.66-5.92-15.24-16.88-15.24-8.99,0-15.68,6.25-17.54,15.24Z"/>
      <path class="cls-1" d="M296.54,47.8h-52.73v28.29c0,7.67,5.37,8.77,13.59,9.1v3.62h-36.07v-3.62c8.22-.33,13.59-1.43,13.59-9.1V16.01c0-7.67-5.37-8.77-13.59-9.1v-3.62h36.07v3.62c-8.22.33-13.59,1.43-13.59,9.1v26.86h52.73v-26.86c0-7.67-5.37-8.77-13.59-9.1v-3.62h36.07v3.62c-8.22.33-13.59,1.43-13.59,9.1v60.08c0,7.67,5.37,8.77,13.59,9.1v3.62h-36.07v-3.62c8.22-.33,13.59-1.43,13.59-9.1v-28.29Z"/>
      <path class="cls-1" d="M371.95,53.28v2.63h-44.29c-1.1,16.34,8.22,26.97,22.37,26.97,9.43,0,14.47-3.62,19.41-9.87l2.74.99c-3.07,8.44-10.52,15.9-24.23,15.9-18.2,0-27.96-13.27-27.96-27.85,0-18.64,11.29-31.68,28.18-31.68,15.68,0,23.79,9.87,23.79,22.91ZM328.43,51.2h34.42c0-8.66-5.92-15.24-16.88-15.24-8.99,0-15.68,6.25-17.54,15.24Z"/>
      <path class="cls-1" d="M420.41,76.41c0,4.82,1.97,7.67,5.59,7.67,1.43,0,3.18-.33,4.82-.99l1.1,2.08c-3.18,2.96-6.36,4.71-9.98,4.71-5.26,0-9.21-3.95-9.54-10.74-4.06,4.49-10.09,10.85-20.94,10.85s-16.88-6.69-16.88-14.8c0-10.42,7.78-12.61,15.9-14.91l21.6-6.25v-2.63c0-8.44-4.49-16.01-15.13-16.01-6.8,0-10.31,2.63-10.31,8.77,0,1.32.11,2.74.66,4.39l-7.24.77c-1.43-.99-2.3-3.29-2.3-5.26,0-8.44,9.65-13.7,21.27-13.7,12.72,0,21.38,5.92,21.38,19.95v26.09ZM412.07,75.1v-16.55l-21.49,6.58c-4.17,1.32-6.91,3.95-6.91,8.66,0,6.91,4.28,10.31,10.31,10.31,7.24,0,12.5-4.06,18.09-8.99Z"/>
      <path class="cls-1" d="M477.41,89.9h-.77l.55-9.98c-5.26,5.92-12.28,9.98-20.28,9.98-17.21,0-26.64-12.72-26.64-26.97,0-20.06,14.03-32.56,30.37-32.56,7.67,0,13.05,2.3,16.55,5.15V9.76l-8.77-1.75v-2.08l13.81-5.92h3.73l-.55,9.43v68.08c0,3.73,1.21,3.95,6.91,4.71l3.07.44v3.29l-17.98,3.95ZM438.93,59.75c0,12.83,6.8,23.57,20.39,23.57,7.24,0,13.81-3.4,17.87-8.11v-23.24c0-10.85-6.69-16.33-17.87-16.33-12.17,0-20.39,8.66-20.39,24.12Z"/>
      <path class="cls-1" d="M512.16,79.38c0,5.04,4.28,5.59,9.32,6.25v3.18h-26.97v-3.18c5.04-.66,9.32-1.21,9.32-6.25V9.76l-8.77-1.75v-2.08l14.03-5.92h3.62l-.55,9.43v69.95Z"/>
      <path class="cls-1" d="M541.54,79.38c0,5.04,4.27,5.59,9.32,6.25v3.18h-26.97v-3.18c5.04-.66,9.32-1.21,9.32-6.25v-38.48l-8.77-2.85v-2.19l14.03-5.26h3.62l-.55,11.73v37.06ZM536.5,6.36c3.62,0,6.47,2.85,6.47,6.47s-2.85,6.36-6.47,6.36-6.36-2.74-6.36-6.36,2.74-6.47,6.36-6.47Z"/>
      <path class="cls-1" d="M603.48,49.55c0-8.99-4.93-12.17-12.72-12.17-6.69,0-14.8,4.06-19.84,8.66v33.33c0,5.04,4.27,5.59,9.32,6.25v3.18h-26.97v-3.18c5.04-.66,9.32-1.21,9.32-6.25v-38.48l-8.77-2.85v-2.19l14.03-5.26h3.62l-.55,11.07c4.82-5.26,13.26-11.29,22.58-11.29,10.63,0,18.31,4.93,18.31,17.98v31.03c0,5.04,4.28,5.59,9.32,6.25v3.18h-26.97v-3.18c5.04-.66,9.32-1.21,9.32-6.25v-29.82Z"/>
      <path class="cls-1" d="M672.76,53.28v2.63h-44.29c-1.1,16.34,8.22,26.97,22.37,26.97,9.43,0,14.47-3.62,19.41-9.87l2.74.99c-3.07,8.44-10.52,15.9-24.23,15.9-18.2,0-27.96-13.27-27.96-27.85,0-18.64,11.29-31.68,28.17-31.68,15.68,0,23.79,9.87,23.79,22.91ZM629.23,51.2h34.43c0-8.66-5.92-15.24-16.88-15.24-8.99,0-15.68,6.25-17.54,15.24Z"/>
    </g>
  </g>
</svg>